<svg xmlns="http://www.w3.org/2000/svg" xmlns:xlink="http://www.w3.org/1999/xlink" contentStyleType="text/css" data-diagram-type="SEQUENCE" height="1058px" preserveAspectRatio="none" style="width:1573px;height:1058px;background:#FFFFFF;" version="1.1" viewBox="0 0 1573 1058" width="1573px" zoomAndPan="magnify"><defs/><g><rect fill="#DDDDDD" height="1046.1172" style="stroke:#181818;stroke-width:0.5;" width="55.3438" x="1" y="6"/><text fill="#000000" font-family="sans-serif" font-size="13" font-weight="bold" lengthAdjust="spacing" textLength="39.6919" x="8.8259" y="18.0669">Front</text><rect fill="#DDDDDD" height="1046.1172" style="stroke:#181818;stroke-width:0.5;" width="679.1855" x="155.4683" y="6"/><text fill="#000000" font-family="sans-serif" font-size="13" font-weight="bold" lengthAdjust="spacing" textLength="62.4102" x="463.856" y="18.0669">Backend</text><rect fill="#DDDDDD" height="1046.1172" style="stroke:#181818;stroke-width:0.5;" width="601.9043" x="836.6538" y="6"/><text fill="#000000" font-family="sans-serif" font-size="13" font-weight="bold" lengthAdjust="spacing" textLength="53.3267" x="1110.9426" y="18.0669">OpenAI</text><rect fill="#DDDDDD" height="1046.1172" style="stroke:#181818;stroke-width:0.5;" width="109.459" x="1440.5581" y="6"/><text fill="#000000" font-family="sans-serif" font-size="13" font-weight="bold" lengthAdjust="spacing" textLength="51.0098" x="1469.7827" y="18.0669">Qdrant</text><rect fill="transparent" height="323.2656" style="stroke:#000000;stroke-width:1.5;" width="1040.479" x="515.5381" y="400.625"/><g><title>Home</title><rect fill="transparent" height="871.3906" width="8" x="24.6719" y="101.4297"/><line style="stroke:#181818;stroke-width:0.5;stroke-dasharray:5.0,5.0;" x1="28" x2="28" y1="101.4297" y2="972.8203"/></g><g><title>Conversation WS</title><rect fill="transparent" height="871.3906" width="8" x="222.3374" y="101.4297"/><line style="stroke:#181818;stroke-width:0.5;stroke-dasharray:5.0,5.0;" x1="225.4683" x2="225.4683" y1="101.4297" y2="972.8203"/></g><g><title>Notification WS</title><rect fill="transparent" height="871.3906" width="8" x="359.9609" y="101.4297"/><line style="stroke:#181818;stroke-width:0.5;stroke-dasharray:5.0,5.0;" x1="363.2065" x2="363.2065" y1="101.4297" y2="972.8203"/></g><g><title>Tool Service</title><rect fill="transparent" height="871.3906" width="8" x="571.4199" y="101.4297"/><line style="stroke:#181818;stroke-width:0.5;stroke-dasharray:5.0,5.0;" x1="574.5381" x2="574.5381" y1="101.4297" y2="972.8203"/></g><g><title>Workflow Service</title><rect fill="transparent" height="871.3906" width="8" x="759.0054" y="101.4297"/><line style="stroke:#181818;stroke-width:0.5;stroke-dasharray:5.0,5.0;" x1="762.3569" x2="762.3569" y1="101.4297" y2="972.8203"/></g><g><title>Realtime Service</title><rect fill="transparent" height="871.3906" width="8" x="951.7129" y="101.4297"/><line style="stroke:#181818;stroke-width:0.5;stroke-dasharray:5.0,5.0;" x1="955.6538" x2="955.6538" y1="101.4297" y2="972.8203"/></g><g><title>Agent Search</title><rect fill="transparent" height="871.3906" width="8" x="1186.0034" y="101.4297"/><line style="stroke:#181818;stroke-width:0.5;stroke-dasharray:5.0,5.0;" x1="1189.772" x2="1189.772" y1="101.4297" y2="972.8203"/></g><g><title>Agent Structure</title><rect fill="transparent" height="871.3906" width="8" x="1367.8965" y="101.4297"/><line style="stroke:#181818;stroke-width:0.5;stroke-dasharray:5.0,5.0;" x1="1371.2349" x2="1371.2349" y1="101.4297" y2="972.8203"/></g><g><title>Vector Store</title><rect fill="transparent" height="871.3906" width="8" x="1491.2876" y="101.4297"/><line style="stroke:#181818;stroke-width:0.5;stroke-dasharray:5.0,5.0;" x1="1494.5581" x2="1494.5581" y1="101.4297" y2="972.8203"/></g><text fill="#000000" font-family="sans-serif" font-size="14" lengthAdjust="spacing" textLength="41.3438" x="5" y="98.1279">Home</text><ellipse cx="28.6719" cy="33.6328" fill="#E2E2F0" rx="8" ry="8" style="stroke:#181818;stroke-width:0.5;"/><path d="M28.6719,41.6328 L28.6719,68.6328 M15.6719,49.6328 L41.6719,49.6328 M28.6719,68.6328 L15.6719,83.6328 M28.6719,68.6328 L41.6719,83.6328 " fill="transparent" style="stroke:#181818;stroke-width:0.5;"/><text fill="#000000" font-family="sans-serif" font-size="14" lengthAdjust="spacing" textLength="41.3438" x="5" y="984.8154">Home</text><ellipse cx="28.6719" cy="996.6172" fill="#E2E2F0" rx="8" ry="8" style="stroke:#181818;stroke-width:0.5;"/><path d="M28.6719,1004.6172 L28.6719,1031.6172 M15.6719,1012.6172 L41.6719,1012.6172 M28.6719,1031.6172 L15.6719,1046.6172 M28.6719,1031.6172 L41.6719,1046.6172 " fill="transparent" style="stroke:#181818;stroke-width:0.5;"/><rect fill="#E2E2F0" height="30.2969" rx="2.5" ry="2.5" style="stroke:#181818;stroke-width:0.5;" width="133.7383" x="159.4683" y="70.1328"/><text fill="#000000" font-family="sans-serif" font-size="14" lengthAdjust="spacing" textLength="119.7383" x="166.4683" y="90.1279">Conversation WS</text><rect fill="#E2E2F0" height="30.2969" rx="2.5" ry="2.5" style="stroke:#181818;stroke-width:0.5;" width="133.7383" x="159.4683" y="971.8203"/><text fill="#000000" font-family="sans-serif" font-size="14" lengthAdjust="spacing" textLength="119.7383" x="166.4683" y="991.8154">Conversation WS</text><rect fill="#E2E2F0" height="30.2969" rx="2.5" ry="2.5" style="stroke:#181818;stroke-width:0.5;" width="121.5088" x="303.2065" y="70.1328"/><text fill="#000000" font-family="sans-serif" font-size="14" lengthAdjust="spacing" textLength="107.5088" x="310.2065" y="90.1279">Notification WS</text><rect fill="#E2E2F0" height="30.2969" rx="2.5" ry="2.5" style="stroke:#181818;stroke-width:0.5;" width="121.5088" x="303.2065" y="971.8203"/><text fill="#000000" font-family="sans-serif" font-size="14" lengthAdjust="spacing" textLength="107.5088" x="310.2065" y="991.8154">Notification WS</text><rect fill="#E2E2F0" height="30.2969" rx="2.5" ry="2.5" style="stroke:#181818;stroke-width:0.5;" width="99.7637" x="525.5381" y="70.1328"/><text fill="#000000" font-family="sans-serif" font-size="14" lengthAdjust="spacing" textLength="85.7637" x="532.5381" y="90.1279">Tool Service</text><rect fill="#E2E2F0" height="30.2969" rx="2.5" ry="2.5" style="stroke:#181818;stroke-width:0.5;" width="99.7637" x="525.5381" y="971.8203"/><text fill="#000000" font-family="sans-serif" font-size="14" lengthAdjust="spacing" textLength="85.7637" x="532.5381" y="991.8154">Tool Service</text><rect fill="#E2E2F0" height="30.2969" rx="2.5" ry="2.5" style="stroke:#181818;stroke-width:0.5;" width="135.2969" x="695.3569" y="70.1328"/><text fill="#000000" font-family="sans-serif" font-size="14" lengthAdjust="spacing" textLength="121.2969" x="702.3569" y="90.1279">Workflow Service</text><rect fill="#E2E2F0" height="30.2969" rx="2.5" ry="2.5" style="stroke:#181818;stroke-width:0.5;" width="135.2969" x="695.3569" y="971.8203"/><text fill="#000000" font-family="sans-serif" font-size="14" lengthAdjust="spacing" textLength="121.2969" x="702.3569" y="991.8154">Workflow Service</text><rect fill="#E2E2F0" height="46.5938" rx="2.5" ry="2.5" style="stroke:#181818;stroke-width:0.5;" width="230.1182" x="840.6538" y="53.8359"/><text fill="#000000" font-family="sans-serif" font-size="14" lengthAdjust="spacing" textLength="118.6309" x="896.3975" y="73.8311">Realtime Service</text><text fill="#000000" font-family="sans-serif" font-size="14" lengthAdjust="spacing" textLength="216.1182" x="847.6538" y="90.1279">(gpt-4o-mini-realtime-preview)</text><rect fill="#E2E2F0" height="46.5938" rx="2.5" ry="2.5" style="stroke:#181818;stroke-width:0.5;" width="230.1182" x="840.6538" y="971.8203"/><text fill="#000000" font-family="sans-serif" font-size="14" lengthAdjust="spacing" textLength="118.6309" x="896.3975" y="991.8154">Realtime Service</text><text fill="#000000" font-family="sans-serif" font-size="14" lengthAdjust="spacing" textLength="216.1182" x="847.6538" y="1008.1123">(gpt-4o-mini-realtime-preview)</text><rect fill="#E2E2F0" height="46.5938" rx="2.5" ry="2.5" style="stroke:#181818;stroke-width:0.5;" width="218.4629" x="1080.772" y="53.8359"/><text fill="#000000" font-family="sans-serif" font-size="14" lengthAdjust="spacing" textLength="94.2949" x="1142.856" y="73.8311">Agent Search</text><text fill="#000000" font-family="sans-serif" font-size="14" lengthAdjust="spacing" textLength="204.4629" x="1087.772" y="90.1279">(gpt-4o-mini-search-preview)</text><rect fill="#E2E2F0" height="46.5938" rx="2.5" ry="2.5" style="stroke:#181818;stroke-width:0.5;" width="218.4629" x="1080.772" y="971.8203"/><text fill="#000000" font-family="sans-serif" font-size="14" lengthAdjust="spacing" textLength="94.2949" x="1142.856" y="991.8154">Agent Search</text><text fill="#000000" font-family="sans-serif" font-size="14" lengthAdjust="spacing" textLength="204.4629" x="1087.772" y="1008.1123">(gpt-4o-mini-search-preview)</text><rect fill="#E2E2F0" height="46.5938" rx="2.5" ry="2.5" style="stroke:#181818;stroke-width:0.5;" width="125.3232" x="1309.2349" y="53.8359"/><text fill="#000000" font-family="sans-serif" font-size="14" lengthAdjust="spacing" textLength="111.3232" x="1316.2349" y="73.8311">Agent Structure</text><text fill="#000000" font-family="sans-serif" font-size="14" lengthAdjust="spacing" textLength="92.0527" x="1325.8701" y="90.1279">(gpt-4o-mini)</text><rect fill="#E2E2F0" height="46.5938" rx="2.5" ry="2.5" style="stroke:#181818;stroke-width:0.5;" width="125.3232" x="1309.2349" y="971.8203"/><text fill="#000000" font-family="sans-serif" font-size="14" lengthAdjust="spacing" textLength="111.3232" x="1316.2349" y="991.8154">Agent Structure</text><text fill="#000000" font-family="sans-serif" font-size="14" lengthAdjust="spacing" textLength="92.0527" x="1325.8701" y="1008.1123">(gpt-4o-mini)</text><rect fill="#E2E2F0" height="30.2969" rx="2.5" ry="2.5" style="stroke:#181818;stroke-width:0.5;" width="101.459" x="1444.5581" y="70.1328"/><text fill="#000000" font-family="sans-serif" font-size="14" lengthAdjust="spacing" textLength="87.459" x="1451.5581" y="90.1279">Vector Store</text><rect fill="#E2E2F0" height="30.2969" rx="2.5" ry="2.5" style="stroke:#181818;stroke-width:0.5;" width="101.459" x="1444.5581" y="971.8203"/><text fill="#000000" font-family="sans-serif" font-size="14" lengthAdjust="spacing" textLength="87.459" x="1451.5581" y="991.8154">Vector Store</text><rect fill="#EEEEEE" height="3" style="stroke:#EEEEEE;stroke-width:1;" width="1566.0171" x="0" y="131.9961"/><line style="stroke:#000000;stroke-width:1;" x1="0" x2="1566.0171" y1="131.9961" y2="131.9961"/><line style="stroke:#000000;stroke-width:1;" x1="0" x2="1566.0171" y1="134.9961" y2="134.9961"/><rect fill="#EEEEEE" height="23.1328" style="stroke:#000000;stroke-width:2;" width="203.9219" x="681.0476" y="121.4297"/><text fill="#000000" font-family="sans-serif" font-size="13" font-weight="bold" lengthAdjust="spacing" textLength="185.396" x="687.0476" y="137.4966">Audio Capture &amp; Request</text><polygon fill="#181818" points="214.3374,171.6953,224.3374,175.6953,214.3374,179.6953,218.3374,175.6953" style="stroke:#181818;stroke-width:1;"/><line style="stroke:#181818;stroke-width:1;" x1="28.6719" x2="220.3374" y1="175.6953" y2="175.6953"/><text fill="#000000" font-family="sans-serif" font-size="13" lengthAdjust="spacing" textLength="173.6655" x="35.6719" y="170.6294">Capture microphone audio</text><polygon fill="#181818" points="943.7129,200.8281,953.7129,204.8281,943.7129,208.8281,947.7129,204.8281" style="stroke:#181818;stroke-width:1;"/><line style="stroke:#181818;stroke-width:1;" x1="226.3374" x2="949.7129" y1="204.8281" y2="204.8281"/><text fill="#000000" font-family="sans-serif" font-size="13" lengthAdjust="spacing" textLength="116.4224" x="233.3374" y="199.7622">Send audio chunk</text><polygon fill="#181818" points="237.3374,229.9609,227.3374,233.9609,237.3374,237.9609,233.3374,233.9609" style="stroke:#181818;stroke-width:1;"/><line style="stroke:#181818;stroke-width:1;" x1="231.3374" x2="954.7129" y1="233.9609" y2="233.9609"/><text fill="#000000" font-family="sans-serif" font-size="13" lengthAdjust="spacing" textLength="215.7759" x="243.3374" y="228.895">function_call "searchAutomobile"</text><rect fill="#EEEEEE" height="3" style="stroke:#EEEEEE;stroke-width:1;" width="1566.0171" x="0" y="262.5273"/><line style="stroke:#000000;stroke-width:1;" x1="0" x2="1566.0171" y1="262.5273" y2="262.5273"/><line style="stroke:#000000;stroke-width:1;" x1="0" x2="1566.0171" y1="265.5273" y2="265.5273"/><rect fill="#EEEEEE" height="23.1328" style="stroke:#000000;stroke-width:2;" width="182.2827" x="691.8672" y="251.9609"/><text fill="#000000" font-family="sans-serif" font-size="13" font-weight="bold" lengthAdjust="spacing" textLength="163.7568" x="697.8672" y="268.0278">Internal Backend Flow</text><path d="M109,290.0938 L109,330.0938 L343,330.0938 L343,300.0938 L333,290.0938 L109,290.0938 " fill="#FEFFDD" style="stroke:#181818;stroke-width:0.5;"/><path d="M333,290.0938 L333,300.0938 L343,300.0938 L333,290.0938 " fill="#FEFFDD" style="stroke:#181818;stroke-width:0.5;"/><text fill="#000000" font-family="sans-serif" font-size="13" lengthAdjust="spacing" textLength="213.6621" x="115" y="307.1606">Upon receiving the function_call,</text><text fill="#000000" font-family="sans-serif" font-size="13" lengthAdjust="spacing" textLength="152.2612" x="115" y="322.2935">invoke the Tool Service</text><polygon fill="#181818" points="563.4199,352.4922,573.4199,356.4922,563.4199,360.4922,567.4199,356.4922" style="stroke:#181818;stroke-width:1;"/><line style="stroke:#181818;stroke-width:1;" x1="226.3374" x2="569.4199" y1="356.4922" y2="356.4922"/><text fill="#000000" font-family="sans-serif" font-size="13" lengthAdjust="spacing" textLength="186.2212" x="233.3374" y="351.4263">Execute "searchAutomobile"</text><polygon fill="#181818" points="1483.2876,381.625,1493.2876,385.625,1483.2876,389.625,1487.2876,385.625" style="stroke:#181818;stroke-width:1;"/><line style="stroke:#181818;stroke-width:1;" x1="575.4199" x2="1489.2876" y1="385.625" y2="385.625"/><text fill="#000000" font-family="sans-serif" font-size="13" lengthAdjust="spacing" textLength="122.1733" x="582.4199" y="380.5591">Query vector store</text><path d="M515.5381,400.625 L579.981,400.625 L579.981,407.7578 L569.981,417.7578 L515.5381,417.7578 L515.5381,400.625 " fill="#EEEEEE" style="stroke:#000000;stroke-width:1.5;"/><rect fill="transparent" height="323.2656" style="stroke:#000000;stroke-width:1.5;" width="1040.479" x="515.5381" y="400.625"/><text fill="#000000" font-family="sans-serif" font-size="13" font-weight="bold" lengthAdjust="spacing" textLength="19.4429" x="530.5381" y="413.6919">alt</text><text fill="#000000" font-family="sans-serif" font-size="11" font-weight="bold" lengthAdjust="spacing" textLength="169.5493" x="594.981" y="412.8354">[Vector Store finds results]</text><polygon fill="#181818" points="586.4199,434.8906,576.4199,438.8906,586.4199,442.8906,582.4199,438.8906" style="stroke:#181818;stroke-width:1;"/><line style="stroke:#181818;stroke-width:1;stroke-dasharray:2.0,2.0;" x1="580.4199" x2="1494.2876" y1="438.8906" y2="438.8906"/><text fill="#000000" font-family="sans-serif" font-size="13" lengthAdjust="spacing" textLength="91.9204" x="592.4199" y="433.8247">Return results</text><line style="stroke:#000000;stroke-width:1;stroke-dasharray:2.0,2.0;" x1="515.5381" x2="1556.0171" y1="447.8906" y2="447.8906"/><text fill="#000000" font-family="sans-serif" font-size="11" font-weight="bold" lengthAdjust="spacing" textLength="113.1958" x="520.5381" y="458.1011">[No results found]</text><polygon fill="#181818" points="586.4199,478.8281,576.4199,482.8281,586.4199,486.8281,582.4199,482.8281" style="stroke:#181818;stroke-width:1;"/><line style="stroke:#181818;stroke-width:1;stroke-dasharray:2.0,2.0;" x1="580.4199" x2="1494.2876" y1="482.8281" y2="482.8281"/><text fill="#000000" font-family="sans-serif" font-size="13" lengthAdjust="spacing" textLength="105.3838" x="592.4199" y="477.7622">Empty response</text><polygon fill="#181818" points="751.0054,507.9609,761.0054,511.9609,751.0054,515.9609,755.0054,511.9609" style="stroke:#181818;stroke-width:1;"/><line style="stroke:#181818;stroke-width:1;" x1="575.4199" x2="757.0054" y1="511.9609" y2="511.9609"/><text fill="#000000" font-family="sans-serif" font-size="13" lengthAdjust="spacing" textLength="147.2974" x="582.4199" y="506.895">Invoke agent workflow</text><polygon fill="#181818" points="1178.0034,537.0938,1188.0034,541.0938,1178.0034,545.0938,1182.0034,541.0938" style="stroke:#181818;stroke-width:1;"/><line style="stroke:#181818;stroke-width:1;" x1="763.0054" x2="1184.0034" y1="541.0938" y2="541.0938"/><text fill="#000000" font-family="sans-serif" font-size="13" lengthAdjust="spacing" textLength="99.3218" x="770.0054" y="536.0278">Perform search</text><polygon fill="#181818" points="774.0054,566.2266,764.0054,570.2266,774.0054,574.2266,770.0054,570.2266" style="stroke:#181818;stroke-width:1;"/><line style="stroke:#181818;stroke-width:1;stroke-dasharray:2.0,2.0;" x1="768.0054" x2="1189.0034" y1="570.2266" y2="570.2266"/><text fill="#000000" font-family="sans-serif" font-size="13" lengthAdjust="spacing" textLength="105.4409" x="780.0054" y="565.1606">Return raw data</text><polygon fill="#181818" points="1359.8965,595.3594,1369.8965,599.3594,1359.8965,603.3594,1363.8965,599.3594" style="stroke:#181818;stroke-width:1;"/><line style="stroke:#181818;stroke-width:1;" x1="763.0054" x2="1365.8965" y1="599.3594" y2="599.3594"/><text fill="#000000" font-family="sans-serif" font-size="13" lengthAdjust="spacing" textLength="94.1738" x="770.0054" y="594.2935">Structure data</text><polygon fill="#181818" points="774.0054,624.4922,764.0054,628.4922,774.0054,632.4922,770.0054,628.4922" style="stroke:#181818;stroke-width:1;"/><line style="stroke:#181818;stroke-width:1;stroke-dasharray:2.0,2.0;" x1="768.0054" x2="1370.8965" y1="628.4922" y2="628.4922"/><text fill="#000000" font-family="sans-serif" font-size="13" lengthAdjust="spacing" textLength="166.5498" x="780.0054" y="623.4263">Return Automobile object</text><polygon fill="#181818" points="1483.2876,653.625,1493.2876,657.625,1483.2876,661.625,1487.2876,657.625" style="stroke:#181818;stroke-width:1;"/><line style="stroke:#181818;stroke-width:1;" x1="763.0054" x2="1489.2876" y1="657.625" y2="657.625"/><text fill="#000000" font-family="sans-serif" font-size="13" lengthAdjust="spacing" textLength="146.6943" x="770.0054" y="652.5591">Insert new Automobile</text><polygon fill="#181818" points="774.0054,682.7578,764.0054,686.7578,774.0054,690.7578,770.0054,686.7578" style="stroke:#181818;stroke-width:1;"/><line style="stroke:#181818;stroke-width:1;stroke-dasharray:2.0,2.0;" x1="768.0054" x2="1494.2876" y1="686.7578" y2="686.7578"/><text fill="#000000" font-family="sans-serif" font-size="13" lengthAdjust="spacing" textLength="123.8237" x="780.0054" y="681.6919">Insert confirmation</text><polygon fill="#181818" points="586.4199,711.8906,576.4199,715.8906,586.4199,719.8906,582.4199,715.8906" style="stroke:#181818;stroke-width:1;"/><line style="stroke:#181818;stroke-width:1;stroke-dasharray:2.0,2.0;" x1="580.4199" x2="762.0054" y1="715.8906" y2="715.8906"/><text fill="#000000" font-family="sans-serif" font-size="13" lengthAdjust="spacing" textLength="163.5854" x="592.4199" y="710.8247">Return structured results</text><polygon fill="#181818" points="943.7129,748.0234,953.7129,752.0234,943.7129,756.0234,947.7129,752.0234" style="stroke:#181818;stroke-width:1;"/><line style="stroke:#181818;stroke-width:1;" x1="575.4199" x2="949.7129" y1="752.0234" y2="752.0234"/><text fill="#000000" font-family="sans-serif" font-size="13" lengthAdjust="spacing" textLength="119.7104" x="582.4199" y="746.9575">Return tool output</text><rect fill="#EEEEEE" height="3" style="stroke:#EEEEEE;stroke-width:1;" width="1566.0171" x="0" y="780.5898"/><line style="stroke:#000000;stroke-width:1;" x1="0" x2="1566.0171" y1="780.5898" y2="780.5898"/><line style="stroke:#000000;stroke-width:1;" x1="0" x2="1566.0171" y1="783.5898" y2="783.5898"/><rect fill="#EEEEEE" height="23.1328" style="stroke:#000000;stroke-width:2;" width="153.7183" x="706.1494" y="770.0234"/><text fill="#000000" font-family="sans-serif" font-size="13" font-weight="bold" lengthAdjust="spacing" textLength="135.1924" x="712.1494" y="786.0903">Visual Notification</text><polygon fill="#181818" points="374.9609,820.2891,364.9609,824.2891,374.9609,828.2891,370.9609,824.2891" style="stroke:#181818;stroke-width:1;"/><line style="stroke:#181818;stroke-width:1;" x1="368.9609" x2="574.4199" y1="824.2891" y2="824.2891"/><text fill="#000000" font-family="sans-serif" font-size="13" lengthAdjust="spacing" textLength="187.459" x="380.9609" y="819.2231">Send automobile notification</text><polygon fill="#181818" points="39.6719,849.4219,29.6719,853.4219,39.6719,857.4219,35.6719,853.4219" style="stroke:#181818;stroke-width:1;"/><line style="stroke:#181818;stroke-width:1;" x1="33.6719" x2="362.9609" y1="853.4219" y2="853.4219"/><text fill="#000000" font-family="sans-serif" font-size="13" lengthAdjust="spacing" textLength="165.9087" x="45.6719" y="848.356">Display popup with result</text><rect fill="#EEEEEE" height="3" style="stroke:#EEEEEE;stroke-width:1;" width="1566.0171" x="0" y="881.9883"/><line style="stroke:#000000;stroke-width:1;" x1="0" x2="1566.0171" y1="881.9883" y2="881.9883"/><line style="stroke:#000000;stroke-width:1;" x1="0" x2="1566.0171" y1="884.9883" y2="884.9883"/><rect fill="#EEEEEE" height="23.1328" style="stroke:#000000;stroke-width:2;" width="227.7446" x="669.1362" y="871.4219"/><text fill="#000000" font-family="sans-serif" font-size="13" font-weight="bold" lengthAdjust="spacing" textLength="209.2188" x="675.1362" y="887.4888">Audio Generation &amp; Delivery</text><polygon fill="#181818" points="237.3374,921.6875,227.3374,925.6875,237.3374,929.6875,233.3374,925.6875" style="stroke:#181818;stroke-width:1;"/><line style="stroke:#181818;stroke-width:1;" x1="231.3374" x2="954.7129" y1="925.6875" y2="925.6875"/><text fill="#000000" font-family="sans-serif" font-size="13" lengthAdjust="spacing" textLength="150.6743" x="243.3374" y="920.6216">Request TTS for output</text><polygon fill="#181818" points="39.6719,950.8203,29.6719,954.8203,39.6719,958.8203,35.6719,954.8203" style="stroke:#181818;stroke-width:1;"/><line style="stroke:#181818;stroke-width:1;" x1="33.6719" x2="225.3374" y1="954.8203" y2="954.8203"/><text fill="#000000" font-family="sans-serif" font-size="13" lengthAdjust="spacing" textLength="146.6689" x="45.6719" y="949.7544">Deliver and play audio</text><!--SRC=[VLN9Rjim4BthAmO-12rGtNeou09EdBIvj4sT9fS01KsDOjOIoNAHax_laDhfn3vu6RttPX_lr0iiReoIRf41CEwKWM-gnWnb0JlracMxWBXa_42MWD7CEC65PjB1uah91erbJYW9Zzi5C0jJMuh_hfme1P_XfxOKVwzK1LiqZU0OmS6GWXwLEPILEiw0lR6p9Vdyq2ZNjoVf_49MEL5Zh_GaFpnhbtzMUIsao4ttEDS66u77Zz5JJqh5riz87rjaXkyJ8HkDSva8l_JsdyU2lQFbZEVEcoIk2V_QTX2M97nN6DRsUARxWB7ZMtfhozOQDfSZVRM2jI-4WYkcWs-ue8mfIEjWjSh2h43-PTPq2A_bWAy5DqhlbKHWGIYROOaxL7r9rIAt4GLyx-KX6vwbFfPGUid3rp-SLHKisfgklLErseaA5p7qM-dGI5P1Dy5m4mQ50fVA8IZII-VrjoPrWnn58-Gpk3tEFNqYZ92DEc1yDftGMBGWV99YH7LrkNv1xidv6n576C7xBi3mMiATH_CAJTim6ngMPLGRcBOGIY4BIz5RNpcR1U8WbK_3M5BHgJboW69baJQn_msbyh8u8m3JqAvhxLu3bKfdCRBwJ98rdB9ksoAoEDh73XV9AObqPjj1v9zeIcLgQ6iOMND8VkfyJ9eTeM2EdNKshj9oNBoHbc3E-XjR36htb-hvdkDvtqE9B1e74eyJZTEkl5NaWSoLB8Mf-_5-ms_Qro7kFZiinZcXgHZ6T5ZE4wOB2EMTzYwkuOEmdfPmTlvf2NkXcRqLwYx1K3Wv_PUOuOaVhr3BsmYhA_OAMccluIZSlejzSic-eaJJaYzWWvLemcfHF6UkJN_pxk-tj1ocJovTz6aahJ0mIYI65E_QVm00]--></g></svg>