<svg xmlns="http://www.w3.org/2000/svg" xmlns:xlink="http://www.w3.org/1999/xlink" contentStyleType="text/css" data-diagram-type="SEQUENCE" height="526px" preserveAspectRatio="none" style="width:486px;height:526px;background:#FFFFFF;" version="1.1" viewBox="0 0 486 526" width="486px" zoomAndPan="magnify"><defs/><g><rect fill="#DDDDDD" height="514.0547" style="stroke:#181818;stroke-width:0.5;" width="55.3438" x="1" y="6"/><text fill="#000000" font-family="sans-serif" font-size="13" font-weight="bold" lengthAdjust="spacing" textLength="39.6919" x="8.8259" y="18.0669">Front</text><rect fill="#DDDDDD" height="514.0547" style="stroke:#181818;stroke-width:0.5;" width="355.791" x="122.397" y="6"/><text fill="#000000" font-family="sans-serif" font-size="13" font-weight="bold" lengthAdjust="spacing" textLength="144.5806" x="228.0022" y="18.0669">Backend &amp; Services</text><g><title>Session Service</title><rect fill="#FFFFFF" height="145.6641" style="stroke:#181818;stroke-width:1;" width="10" x="183.2007" y="175.6953"/></g><g><title>Conversation</title><rect fill="#FFFFFF" height="29.1328" style="stroke:#181818;stroke-width:1;" width="10" x="311.5796" y="204.8281"/></g><g><title>Notification</title><rect fill="#FFFFFF" height="29.1328" style="stroke:#181818;stroke-width:1;" width="10" x="422.0234" y="263.0938"/></g><g><title>Home</title><rect fill="transparent" height="339.3281" width="8" x="24.6719" y="101.4297"/><line style="stroke:#181818;stroke-width:0.5;stroke-dasharray:5.0,5.0;" x1="28" x2="28" y1="101.4297" y2="440.7578"/></g><g><title>Session Service</title><rect fill="transparent" height="339.3281" width="8" x="184.2007" y="101.4297"/><line style="stroke:#181818;stroke-width:0.5;stroke-dasharray:5.0,5.0;" x1="187.397" x2="187.397" y1="101.4297" y2="440.7578"/></g><g><title>Conversation</title><rect fill="transparent" height="339.3281" width="8" x="312.5796" y="101.4297"/><line style="stroke:#181818;stroke-width:0.5;stroke-dasharray:5.0,5.0;" x1="316.3003" x2="316.3003" y1="101.4297" y2="440.7578"/></g><g><title>Notification</title><rect fill="transparent" height="339.3281" width="8" x="423.0234" y="101.4297"/><line style="stroke:#181818;stroke-width:0.5;stroke-dasharray:5.0,5.0;" x1="426.8589" x2="426.8589" y1="101.4297" y2="440.7578"/></g><text fill="#000000" font-family="sans-serif" font-size="14" lengthAdjust="spacing" textLength="41.3438" x="5" y="98.1279">Home</text><ellipse cx="28.6719" cy="33.6328" fill="#E2E2F0" rx="8" ry="8" style="stroke:#181818;stroke-width:0.5;"/><path d="M28.6719,41.6328 L28.6719,68.6328 M15.6719,49.6328 L41.6719,49.6328 M28.6719,68.6328 L15.6719,83.6328 M28.6719,68.6328 L41.6719,83.6328 " fill="transparent" style="stroke:#181818;stroke-width:0.5;"/><text fill="#000000" font-family="sans-serif" font-size="14" lengthAdjust="spacing" textLength="41.3438" x="5" y="452.7529">Home</text><ellipse cx="28.6719" cy="464.5547" fill="#E2E2F0" rx="8" ry="8" style="stroke:#181818;stroke-width:0.5;"/><path d="M28.6719,472.5547 L28.6719,499.5547 M15.6719,480.5547 L41.6719,480.5547 M28.6719,499.5547 L15.6719,514.5547 M28.6719,499.5547 L41.6719,514.5547 " fill="transparent" style="stroke:#181818;stroke-width:0.5;"/><rect fill="#E2E2F0" height="30.2969" rx="2.5" ry="2.5" style="stroke:#181818;stroke-width:0.5;" width="123.6074" x="126.397" y="70.1328"/><text fill="#000000" font-family="sans-serif" font-size="14" lengthAdjust="spacing" textLength="109.6074" x="133.397" y="90.1279">Session Service</text><rect fill="#E2E2F0" height="30.2969" rx="2.5" ry="2.5" style="stroke:#181818;stroke-width:0.5;" width="123.6074" x="126.397" y="439.7578"/><text fill="#000000" font-family="sans-serif" font-size="14" lengthAdjust="spacing" textLength="109.6074" x="133.397" y="459.7529">Session Service</text><rect fill="#E2E2F0" height="30.2969" rx="2.5" ry="2.5" style="stroke:#181818;stroke-width:0.5;" width="106.5586" x="263.3003" y="70.1328"/><text fill="#000000" font-family="sans-serif" font-size="14" lengthAdjust="spacing" textLength="92.5586" x="270.3003" y="90.1279">Conversation</text><rect fill="#E2E2F0" height="30.2969" rx="2.5" ry="2.5" style="stroke:#181818;stroke-width:0.5;" width="106.5586" x="263.3003" y="439.7578"/><text fill="#000000" font-family="sans-serif" font-size="14" lengthAdjust="spacing" textLength="92.5586" x="270.3003" y="459.7529">Conversation</text><rect fill="#E2E2F0" height="30.2969" rx="2.5" ry="2.5" style="stroke:#181818;stroke-width:0.5;" width="94.3291" x="379.8589" y="70.1328"/><text fill="#000000" font-family="sans-serif" font-size="14" lengthAdjust="spacing" textLength="80.3291" x="386.8589" y="90.1279">Notification</text><rect fill="#E2E2F0" height="30.2969" rx="2.5" ry="2.5" style="stroke:#181818;stroke-width:0.5;" width="94.3291" x="379.8589" y="439.7578"/><text fill="#000000" font-family="sans-serif" font-size="14" lengthAdjust="spacing" textLength="80.3291" x="386.8589" y="459.7529">Notification</text><g><title>Session Service</title><rect fill="#FFFFFF" height="145.6641" style="stroke:#181818;stroke-width:1;" width="10" x="183.2007" y="175.6953"/></g><g><title>Conversation</title><rect fill="#FFFFFF" height="29.1328" style="stroke:#181818;stroke-width:1;" width="10" x="311.5796" y="204.8281"/></g><g><title>Notification</title><rect fill="#FFFFFF" height="29.1328" style="stroke:#181818;stroke-width:1;" width="10" x="422.0234" y="263.0938"/></g><rect fill="#EEEEEE" height="3" style="stroke:#EEEEEE;stroke-width:1;" width="479.188" x="0" y="131.9961"/><line style="stroke:#000000;stroke-width:1;" x1="0" x2="479.188" y1="131.9961" y2="131.9961"/><line style="stroke:#000000;stroke-width:1;" x1="0" x2="479.188" y1="134.9961" y2="134.9961"/><rect fill="#EEEEEE" height="23.1328" style="stroke:#000000;stroke-width:2;" width="232.3721" x="123.408" y="121.4297"/><text fill="#000000" font-family="sans-serif" font-size="13" font-weight="bold" lengthAdjust="spacing" textLength="213.8462" x="129.408" y="137.4966">Connection and Session Flow</text><polygon fill="#181818" points="171.2007,171.6953,181.2007,175.6953,171.2007,179.6953,175.2007,175.6953" style="stroke:#181818;stroke-width:1;"/><line style="stroke:#181818;stroke-width:1;" x1="28.6719" x2="177.2007" y1="175.6953" y2="175.6953"/><text fill="#000000" font-family="sans-serif" font-size="13" lengthAdjust="spacing" textLength="135.5288" x="35.6719" y="170.6294">GET /session (Home)</text><polygon fill="#181818" points="299.5796,200.8281,309.5796,204.8281,299.5796,208.8281,303.5796,204.8281" style="stroke:#181818;stroke-width:1;"/><line style="stroke:#181818;stroke-width:1;" x1="193.2007" x2="305.5796" y1="204.8281" y2="204.8281"/><text fill="#000000" font-family="sans-serif" font-size="13" lengthAdjust="spacing" textLength="99.3789" x="200.2007" y="199.7622">Init WS context</text><polygon fill="#181818" points="204.2007,229.9609,194.2007,233.9609,204.2007,237.9609,200.2007,233.9609" style="stroke:#181818;stroke-width:1;"/><line style="stroke:#181818;stroke-width:1;stroke-dasharray:2.0,2.0;" x1="198.2007" x2="315.5796" y1="233.9609" y2="233.9609"/><text fill="#000000" font-family="sans-serif" font-size="13" lengthAdjust="spacing" textLength="92.5425" x="210.2007" y="228.895">Context ready</text><polygon fill="#181818" points="410.0234,259.0938,420.0234,263.0938,410.0234,267.0938,414.0234,263.0938" style="stroke:#181818;stroke-width:1;"/><line style="stroke:#181818;stroke-width:1;" x1="193.2007" x2="416.0234" y1="263.0938" y2="263.0938"/><text fill="#000000" font-family="sans-serif" font-size="13" lengthAdjust="spacing" textLength="99.3789" x="200.2007" y="258.0278">Init WS context</text><polygon fill="#181818" points="204.2007,288.2266,194.2007,292.2266,204.2007,296.2266,200.2007,292.2266" style="stroke:#181818;stroke-width:1;"/><line style="stroke:#181818;stroke-width:1;stroke-dasharray:2.0,2.0;" x1="198.2007" x2="426.0234" y1="292.2266" y2="292.2266"/><text fill="#000000" font-family="sans-serif" font-size="13" lengthAdjust="spacing" textLength="92.5425" x="210.2007" y="287.1606">Context ready</text><polygon fill="#181818" points="39.6719,317.3594,29.6719,321.3594,39.6719,325.3594,35.6719,321.3594" style="stroke:#181818;stroke-width:1;"/><line style="stroke:#181818;stroke-width:1;stroke-dasharray:2.0,2.0;" x1="33.6719" x2="187.2007" y1="321.3594" y2="321.3594"/><text fill="#000000" font-family="sans-serif" font-size="13" lengthAdjust="spacing" textLength="127.0674" x="45.6719" y="316.2935">200 OK + sessionId</text><rect fill="#EEEEEE" height="3" style="stroke:#EEEEEE;stroke-width:1;" width="479.188" x="0" y="349.9258"/><line style="stroke:#000000;stroke-width:1;" x1="0" x2="479.188" y1="349.9258" y2="349.9258"/><line style="stroke:#000000;stroke-width:1;" x1="0" x2="479.188" y1="352.9258" y2="352.9258"/><rect fill="#EEEEEE" height="23.1328" style="stroke:#000000;stroke-width:2;" width="187.5513" x="145.8184" y="339.3594"/><text fill="#000000" font-family="sans-serif" font-size="13" font-weight="bold" lengthAdjust="spacing" textLength="169.0254" x="151.8184" y="355.4263">WebSocket Connection</text><polygon fill="#181818" points="304.5796,389.625,314.5796,393.625,304.5796,397.625,308.5796,393.625" style="stroke:#181818;stroke-width:1;"/><line style="stroke:#181818;stroke-width:1;" x1="28.6719" x2="310.5796" y1="393.625" y2="393.625"/><text fill="#000000" font-family="sans-serif" font-size="13" lengthAdjust="spacing" textLength="200.5479" x="35.6719" y="388.5591">Connect ?session={sessionId}</text><polygon fill="#181818" points="415.0234,418.7578,425.0234,422.7578,415.0234,426.7578,419.0234,422.7578" style="stroke:#181818;stroke-width:1;"/><line style="stroke:#181818;stroke-width:1;" x1="28.6719" x2="421.0234" y1="422.7578" y2="422.7578"/><text fill="#000000" font-family="sans-serif" font-size="13" lengthAdjust="spacing" textLength="200.5479" x="35.6719" y="417.6919">Connect ?session={sessionId}</text><!--SRC=[ZP91IyGm58Jl-HL33wB8uk9neGekhYw27YhiEKsV4DHaIKAjYF_TP4tJfCZYiPFvNkTDqke1rSPevIe6SE6qmRr-9qQgGwi7njhWkE7YDIWdQCZqKf0DzZqtJWgvvygXQiXQgTLegC0jeZQthhNgoLZk_Dd1bmjpywDsyaMAoPmBKyow3bCKYI23UtaCj7dJ7wXh5jR2uYhfAzpTFkF2ni_JS7x6V0MovuvITZRwFPhdzFnMIOTT0-7hey5DRB5F0IsA0EjV48Puzyaw-dj0dY1V_bY2egG2-cU2Oi2KmCE77bUuN2xnz81pn0AtNOwdzlozxAXjj7y_Bh-Xx49chKOJhkFW-YlzuJininwECJy0]--></g></svg>